<?xml version="1.0" encoding="UTF-8"?>
<!DOCTYPE svg PUBLIC "-//W3C//DTD SVG 1.1//EN" "http://www.w3.org/Graphics/SVG/1.1/DTD/svg11.dtd">
<svg xmlns="http://www.w3.org/2000/svg" version="1.1" width="960px" height="206px" style="shape-rendering:geometricPrecision; text-rendering:geometricPrecision; image-rendering:optimizeQuality; fill-rule:evenodd; clip-rule:evenodd" xmlns:xlink="http://www.w3.org/1999/xlink">
<g><path style="opacity:0.899" fill="#000000" d="M 695.5,41.5 C 700.423,40.8711 703.589,42.8711 705,47.5C 705.667,81.8333 705.667,116.167 705,150.5C 701.663,157.274 697.33,157.941 692,152.5C 691.333,116.833 691.333,81.1667 692,45.5C 692.69,43.6498 693.856,42.3164 695.5,41.5 Z"/></g>
<g><path style="opacity:0.9" fill="#010101" d="M 524.5,42.5 C 528.315,41.8285 531.149,43.1619 533,46.5C 533.667,82.1667 533.667,117.833 533,153.5C 528.295,158.964 523.962,158.631 520,152.5C 519.333,117.5 519.333,82.5 520,47.5C 521.025,45.313 522.525,43.6464 524.5,42.5 Z"/></g>
<g><path style="opacity:0.912" fill="#010101" d="M 622.5,42.5 C 626.315,41.8285 629.149,43.1619 631,46.5C 631.667,82.1667 631.667,117.833 631,153.5C 628.369,157.629 624.869,158.462 620.5,156C 619.299,155.097 618.465,153.931 618,152.5C 617.333,117.833 617.333,83.1667 618,48.5C 618.599,45.7458 620.099,43.7458 622.5,42.5 Z"/></g>
<g><path style="opacity:0.898" fill="#000000" d="M 353.5,44.5 C 357.684,43.7036 360.85,45.037 363,48.5C 363.667,83.8333 363.667,119.167 363,154.5C 358.612,160.971 354.278,160.971 350,154.5C 349.333,119.5 349.333,84.5 350,49.5C 350.257,47.0935 351.424,45.4268 353.5,44.5 Z"/></g>
<g><path style="opacity:0.958" fill="#000000" d="M 179.5,49.5 C 182.684,44.5779 186.517,44.2445 191,48.5C 191.667,84.8333 191.667,121.167 191,157.5C 187.04,161.35 183.04,161.35 179,157.5C 178.169,121.331 178.336,85.331 179.5,49.5 Z"/></g>
<g><path style="opacity:0.898" fill="#000000" d="M 287.5,158.5 C 286.469,157.751 285.302,157.085 284,156.5C 283.308,157.025 282.808,157.692 282.5,158.5C 283.472,158.593 284.472,158.926 285.5,159.5C 281.855,161.192 279.022,160.192 277,156.5C 276.333,120.833 276.333,85.1667 277,49.5C 280.522,44.6023 284.522,44.269 289,48.5C 289.333,49.5 289.667,50.5 290,51.5C 290.667,85.5 290.667,119.5 290,153.5C 289.901,155.653 289.067,157.319 287.5,158.5 Z"/></g>
<g><path style="opacity:0.923" fill="#010101" d="M 461.5,158.5 C 457.409,161.516 453.909,160.849 451,156.5C 450.333,120.833 450.333,85.1667 451,49.5C 453.631,45.3715 457.131,44.5381 461.5,47C 462.701,47.9025 463.535,49.0692 464,50.5C 464.667,85.5 464.667,120.5 464,155.5C 463.623,156.942 462.79,157.942 461.5,158.5 Z"/></g>
<g><path style="opacity:0.9" fill="#000000" d="M 802.5,158.5 C 797.788,160.645 794.288,159.311 792,154.5C 791.333,119.833 791.333,85.1667 792,50.5C 794.025,45.8553 797.525,44.3553 802.5,46C 803.667,46.5 804.5,47.3333 805,48.5C 805.667,84.5 805.667,120.5 805,156.5C 804.292,157.381 803.458,158.047 802.5,158.5 Z"/></g>
<g><path style="opacity:1" fill="#0a0a0a" d="M 179.5,49.5 C 182.826,49.0111 182.993,49.6778 180,51.5C 179.536,50.9056 179.369,50.2389 179.5,49.5 Z"/></g>
<g><path style="opacity:0.895" fill="#000000" d="M 672.5,52.5 C 674.903,52.393 676.736,53.393 678,55.5C 678.667,84.1667 678.667,112.833 678,141.5C 675.324,145.636 671.824,146.469 667.5,144C 666.107,142.829 665.273,141.329 665,139.5C 664.333,112.5 664.333,85.5 665,58.5C 665.2,56.6803 666.034,55.347 667.5,54.5C 669.119,55.0716 670.785,55.4049 672.5,55.5C 673.562,54.5754 673.562,53.5754 672.5,52.5 Z"/></g>
<g><path style="opacity:0.952" fill="#000000" d="M 769.5,52.5 C 773.287,51.8144 776.454,52.8144 779,55.5C 779.667,84.5 779.667,113.5 779,142.5C 772.072,147.454 767.572,145.787 765.5,137.5C 766.325,110.209 766.825,82.8756 767,55.5C 768.045,54.6266 768.878,53.6266 769.5,52.5 Z"/></g>
<g><path style="opacity:0.897" fill="#000000" d="M 597.5,53.5 C 602.423,52.8711 605.589,54.8711 607,59.5C 607.667,86.5 607.667,113.5 607,140.5C 604.91,146.292 601.076,147.792 595.5,145C 594.874,144.25 594.374,143.416 594,142.5C 593.333,114.167 593.333,85.8333 594,57.5C 594.69,55.6498 595.856,54.3164 597.5,53.5 Z"/></g>
<g><path style="opacity:0.996" fill="#070707" d="M 672.5,52.5 C 673.562,53.5754 673.562,54.5754 672.5,55.5C 670.785,55.4049 669.119,55.0716 667.5,54.5C 668.635,52.7868 670.302,52.1201 672.5,52.5 Z"/></g>
<g><path style="opacity:0.918" fill="#010101" d="M 334.5,57.5 C 329.9,57.3451 329.567,58.0118 333.5,59.5C 334.416,59.4573 335.083,59.1239 335.5,58.5C 336.222,58.9175 336.722,59.5842 337,60.5C 337.667,87.8333 337.667,115.167 337,142.5C 336.768,143.737 336.268,144.737 335.5,145.5C 333.162,144.053 331.162,144.553 329.5,147C 330.744,147.456 331.577,146.956 332,145.5C 332.464,146.094 332.631,146.761 332.5,147.5C 329.715,148.885 327.382,148.218 325.5,145.5C 327.62,144.15 327.453,142.483 325,140.5C 324.832,114.663 324.332,88.9967 323.5,63.5C 323.061,58.3678 325.394,55.7011 330.5,55.5C 332.355,55.3402 333.688,56.0069 334.5,57.5 Z"/></g>
<g><path style="opacity:0.922" fill="#020202" d="M 429.5,147.5 C 427.629,147.141 426.129,146.141 425,144.5C 424.333,116.167 424.333,87.8333 425,59.5C 427.566,55.5914 431.066,54.5914 435.5,56.5C 436.584,57.6651 437.417,58.9984 438,60.5C 438.667,88.1667 438.667,115.833 438,143.5C 436.162,147.509 433.329,148.843 429.5,147.5 Z"/></g>
<g><path style="opacity:0.893" fill="#000000" d="M 501.5,55.5 C 505.09,55.5441 507.59,57.2108 509,60.5C 509.667,88.5 509.667,116.5 509,144.5C 506.11,148.828 502.277,149.661 497.5,147C 496.874,146.25 496.374,145.416 496,144.5C 495.333,116.5 495.333,88.5 496,60.5C 497.107,57.887 498.94,56.2203 501.5,55.5 Z"/></g>
<g><path style="opacity:0.919" fill="#0a0a0a" d="M 334.5,57.5 C 335.167,57.5 335.5,57.8333 335.5,58.5C 335.083,59.1239 334.416,59.4573 333.5,59.5C 329.567,58.0118 329.9,57.3451 334.5,57.5 Z"/></g>
<g><path style="opacity:0.895" fill="#000000" d="M 159.5,58.5 C 162.654,58.6594 165.154,59.9928 167,62.5C 167.667,91.1667 167.667,119.833 167,148.5C 164.441,151.349 161.274,152.183 157.5,151C 155.513,149.681 154.346,147.848 154,145.5C 153.333,118.5 153.333,91.5 154,64.5C 154.683,61.3212 156.516,59.3212 159.5,58.5 Z"/></g>
<g><path style="opacity:0.893" fill="#000000" d="M 261.5,150.5 C 259.705,148.084 257.705,148.084 255.5,150.5C 253.589,150.426 252.422,149.426 252,147.5C 251.333,119.5 251.333,91.5 252,63.5C 256.333,56.8333 260.667,56.8333 265,63.5C 265.667,91.5 265.667,119.5 265,147.5C 264.578,149.426 263.411,150.426 261.5,150.5 Z"/></g>
<g><path style="opacity:0.893" fill="#000000" d="M 644.5,59.5 C 649.487,58.3491 652.987,60.0158 655,64.5C 655.667,87.1667 655.667,109.833 655,132.5C 652.91,138.292 649.076,139.792 643.5,137C 642.874,136.25 642.374,135.416 642,134.5C 641.333,110.5 641.333,86.5 642,62.5C 643.045,61.6266 643.878,60.6266 644.5,59.5 Z"/></g>
<g><path style="opacity:0.89" fill="#000000" d="M 721.5,59.5 C 725.684,58.7036 728.85,60.037 731,63.5C 731.667,87.1667 731.667,110.833 731,134.5C 726.667,139.833 722.333,139.833 718,134.5C 717.333,110.833 717.333,87.1667 718,63.5C 718.69,61.6498 719.856,60.3164 721.5,59.5 Z"/></g>
<g><path style="opacity:1" fill="#090909" d="M 259.5,60.5 C 262.569,60.963 263.069,62.2963 261,64.5C 259.812,63.4366 259.312,62.1033 259.5,60.5 Z"/></g>
<g><path style="opacity:0.89" fill="#000000" d="M 303.5,62.5 C 305.857,62.3367 308.19,62.5034 310.5,63C 311.701,63.9025 312.535,65.0692 313,66.5C 313.667,90.1667 313.667,113.833 313,137.5C 308.585,142.726 304.251,142.726 300,137.5C 299.333,113.833 299.333,90.1667 300,66.5C 300.69,64.6498 301.856,63.3164 303.5,62.5 Z"/></g>
<g><path style="opacity:0.896" fill="#000000" d="M 379.5,62.5 C 383.287,61.8144 386.454,62.8144 389,65.5C 389.667,89.5 389.667,113.5 389,137.5C 386.369,141.629 382.869,142.462 378.5,140C 377.107,138.829 376.273,137.329 376,135.5C 375.333,112.833 375.333,90.1667 376,67.5C 376.697,65.4156 377.864,63.7489 379.5,62.5 Z"/></g>
<g><path style="opacity:0.896" fill="#000000" d="M 549.5,62.5 C 553.025,62.3459 555.859,63.6792 558,66.5C 558.667,90.1667 558.667,113.833 558,137.5C 556.982,140.683 554.815,142.016 551.5,141.5C 547.741,141.908 545.575,140.242 545,136.5C 544.333,113.5 544.333,90.5 545,67.5C 546.025,65.313 547.525,63.6464 549.5,62.5 Z"/></g>
<g><path style="opacity:0.635" fill="#080808" d="M 323.5,63.5 C 324.332,88.9967 324.832,114.663 325,140.5C 327.453,142.483 327.62,144.15 325.5,145.5C 324.883,145.389 324.383,145.056 324,144.5C 323.5,117.502 323.333,90.5021 323.5,63.5 Z"/></g>
<g><path style="opacity:0.955" fill="#000000" d="M 215.5,141.5 C 213.692,138.819 212.359,138.985 211.5,142C 211.836,143.03 212.503,143.53 213.5,143.5C 209.927,145.2 206.761,144.533 204,141.5C 203.333,117.167 203.333,92.8333 204,68.5C 208,64.5 212,64.5 216,68.5C 216.83,93.0035 216.663,117.337 215.5,141.5 Z"/></g>
<g><path style="opacity:0.893" fill="#010101" d="M 748.5,128.5 C 749.124,126.495 748.29,124.828 746,123.5C 745.005,124.066 744.172,124.733 743.5,125.5C 742.778,125.082 742.278,124.416 742,123.5C 741.333,107.167 741.333,90.8333 742,74.5C 745.322,67.6829 749.656,67.0163 755,72.5C 755.667,90.1667 755.667,107.833 755,125.5C 753.491,127.919 751.325,128.919 748.5,128.5 Z"/></g>
<g><path style="opacity:0.947" fill="#000000" d="M 821.5,68.5 C 824.654,68.6594 827.154,69.9928 829,72.5C 829.667,90.1667 829.667,107.833 829,125.5C 825,129.5 821,129.5 817,125.5C 816.333,107.833 816.333,90.1667 817,72.5C 817.907,70.3909 819.407,69.0576 821.5,68.5 Z"/></g>
<g><path style="opacity:0.891" fill="#010101" d="M 479.5,71.5 C 483.433,71.4113 486.266,73.078 488,76.5C 488.667,93.1667 488.667,109.833 488,126.5C 484.596,132.344 480.263,133.011 475,128.5C 474.333,110.833 474.333,93.1667 475,75.5C 476.397,73.9297 477.897,72.5964 479.5,71.5 Z"/></g>
<g><path style="opacity:0.95" fill="#010101" d="M 405.5,71.5 C 408.374,71.6234 410.874,72.6234 413,74.5C 413.667,92.5 413.667,110.5 413,128.5C 409,132.5 405,132.5 401,128.5C 400.333,110.833 400.333,93.1667 401,75.5C 401.907,73.3909 403.407,72.0576 405.5,71.5 Z"/></g>
<g><path style="opacity:0.889" fill="#000000" d="M 573.5,73.5 C 578.624,72.4639 581.79,74.4639 583,79.5C 583.667,95.5 583.667,111.5 583,127.5C 580.91,133.292 577.076,134.792 571.5,132C 570.874,131.25 570.374,130.416 570,129.5C 569.333,112.167 569.333,94.8333 570,77.5C 570.69,75.6498 571.856,74.3164 573.5,73.5 Z"/></g>
<g><path style="opacity:1" fill="#0c0c0c" d="M 483.5,73.5 C 485.76,74.2376 485.927,75.2376 484,76.5C 483.517,75.552 483.351,74.552 483.5,73.5 Z"/></g>
<g><path style="opacity:0.942" fill="#000000" d="M 133.5,76.5 C 139.264,75.8724 142.597,78.3724 143.5,84C 142.674,100.426 142.174,116.926 142,133.5C 138,137.5 134,137.5 130,133.5C 129.333,115.833 129.333,98.1667 130,80.5C 130.69,78.6498 131.856,77.3164 133.5,76.5 Z"/></g>
<g><path style="opacity:0.893" fill="#000000" d="M 238.5,78.5 C 236.856,78.7135 235.356,78.3802 234,77.5C 233.5,78 233,78.5 232.5,79C 234.81,79.4966 237.143,79.6633 239.5,79.5C 240.222,79.9175 240.722,80.5842 241,81.5C 241.667,98.1667 241.667,114.833 241,131.5C 237.843,137.089 234.01,137.756 229.5,133.5C 228.778,133.082 228.278,132.416 228,131.5C 227.333,114.833 227.333,98.1667 228,81.5C 230.513,76.2884 234.013,75.2884 238.5,78.5 Z"/></g>
<g><path style="opacity:0.938" fill="#080808" d="M 238.5,78.5 C 239.167,78.5 239.5,78.8333 239.5,79.5C 237.143,79.6633 234.81,79.4966 232.5,79C 233,78.5 233.5,78 234,77.5C 235.356,78.3802 236.856,78.7135 238.5,78.5 Z"/></g>
<g><path style="opacity:0.754" fill="#050505" d="M 748.5,128.5 C 745.966,128.741 744.3,127.741 743.5,125.5C 744.172,124.733 745.005,124.066 746,123.5C 748.29,124.828 749.124,126.495 748.5,128.5 Z"/></g>
<g><path style="opacity:1" fill="#0a0a0a" d="M 229.5,133.5 C 230.216,130.988 231.216,130.988 232.5,133.5C 231.767,134.087 230.767,134.087 229.5,133.5 Z"/></g>
<g><path style="opacity:1" fill="#0a0a0a" d="M 215.5,141.5 C 215.167,142.5 214.5,143.167 213.5,143.5C 212.503,143.53 211.836,143.03 211.5,142C 212.359,138.985 213.692,138.819 215.5,141.5 Z"/></g>
<g><path style="opacity:0.876" fill="#080808" d="M 335.5,145.5 C 335.027,146.906 334.027,147.573 332.5,147.5C 332.631,146.761 332.464,146.094 332,145.5C 331.577,146.956 330.744,147.456 329.5,147C 331.162,144.553 333.162,144.053 335.5,145.5 Z"/></g>
<g><path style="opacity:1" fill="#080808" d="M 429.5,147.5 C 430.953,146.175 430.619,145.342 428.5,145C 430.728,144.18 432.728,144.513 434.5,146C 432.975,147.009 431.308,147.509 429.5,147.5 Z"/></g>
<g><path style="opacity:1" fill="#070707" d="M 261.5,150.5 C 259.5,151.833 257.5,151.833 255.5,150.5C 257.705,148.084 259.705,148.084 261.5,150.5 Z"/></g>
<g><path style="opacity:1" fill="#0a0a0a" d="M 698.5,152.5 C 699.873,152.343 701.207,152.51 702.5,153C 701.448,154.119 700.281,154.619 699,154.5C 698.536,153.906 698.369,153.239 698.5,152.5 Z"/></g>
<g><path style="opacity:0.916" fill="#070707" d="M 287.5,158.5 C 287.158,159.338 286.492,159.672 285.5,159.5C 284.472,158.926 283.472,158.593 282.5,158.5C 282.808,157.692 283.308,157.025 284,156.5C 285.302,157.085 286.469,157.751 287.5,158.5 Z"/></g>
<g><path style="opacity:0.966" fill="#0a0a0a" d="M 461.5,158.5 C 459.663,158.361 459.33,157.694 460.5,156.5C 461.298,156.957 461.631,157.624 461.5,158.5 Z"/></g>
<g><path style="opacity:0.959" fill="#0a0a0a" d="M 802.5,158.5 C 801.325,158.719 800.325,158.386 799.5,157.5C 801.052,156.202 802.052,156.535 802.5,158.5 Z"/></g>
</svg>
